<svg xmlns="http://www.w3.org/2000/svg" viewBox="0 0 275.64 100.78"><defs><style>.cls-1{fill:#592c82;}.cls-2{fill:#a2d45e;}.cls-3{fill:#00b2e3;}</style></defs><g id="Layer_2" data-name="Layer 2"><g id="Layer_1-2" data-name="Layer 1"><path class="cls-1" d="M10.47,76.06H.66V28.87h9.81Z"/><path class="cls-1" d="M49.48,76.06H39.66V55.59a5.87,5.87,0,0,0-1.82-4.36,6,6,0,0,0-4.39-1.8,6.15,6.15,0,0,0-6.17,6.16V76.06H17.47V40.55h9.81v1.87a10.74,10.74,0,0,1,7.57-2.8,13.48,13.48,0,0,1,10.42,4.65,16.24,16.24,0,0,1,4.21,11.32Z"/><path class="cls-1" d="M67.54,76.06H57.73V50.36H53.05V40.55h4.68V28.87h9.81V40.55h4.67v9.81H67.54Z"/><path class="cls-1" d="M94.5,49.43H92.86a6.15,6.15,0,0,0-6.17,6.16V76.06H76.88V40.55h9.81v1.87a11.07,11.07,0,0,1,7.81-2.8Z"/><path class="cls-1" d="M133.52,76.06h-9.81V73.63q-3,3.36-9.82,3.36a16.59,16.59,0,0,1-12.7-5.42,18.71,18.71,0,0,1-5-13.26,18.57,18.57,0,0,1,5.14-13.25,16.67,16.67,0,0,1,12.61-5.44q6.78,0,9.82,3.41V40.55h9.81Zm-9.81-17.75a8.86,8.86,0,1,0-2.6,6.28A8.58,8.58,0,0,0,123.71,58.31Z"/><path class="cls-1" d="M175.73,76.06h-9.81V73.63Q163,77,156.1,77a16.59,16.59,0,0,1-12.7-5.42,18.71,18.71,0,0,1-5.05-13.26,18.57,18.57,0,0,1,5.14-13.25,16.67,16.67,0,0,1,12.61-5.44q6.78,0,9.82,3.41V28.87h9.81Zm-9.81-17.75a8.86,8.86,0,1,0-2.6,6.28A8.58,8.58,0,0,0,165.92,58.31Z"/><path class="cls-1" d="M217.94,58.31a18.69,18.69,0,1,1-37.38,0,18.69,18.69,0,1,1,37.38,0Zm-9.81,0a8.86,8.86,0,1,0-2.6,6.28A8.58,8.58,0,0,0,208.13,58.31Z"/><path class="cls-2" d="M236.59,17l31-17,5.3,2V9.71l-18,7.27Zm16.08,8.88L271.6,28l4-4.89L272,18.85H236.59Z"/><path class="cls-3" d="M210,17,192,9.71V2l5.3-2,31,17Zm18.29,1.87H192.9l-3.68,4.29,4,4.89,18.93-2.17Z"/><polygon class="cls-1" points="233.69 57.4 235.1 18.85 229.72 18.85 231.13 57.4 233.69 57.4"/><path class="cls-1" d="M235.68,13.71a3.27,3.27,0,1,1-3.27-3.26A3.26,3.26,0,0,1,235.68,13.71Z"/><path class="cls-3" d="M10.85,93.8h5.43a5.85,5.85,0,0,1-2.11,3.63A6.77,6.77,0,0,1,9.8,98.88a8.17,8.17,0,0,1-3.93-1,7.24,7.24,0,0,1-2.82-2.67,7,7,0,0,1-1-3.6,6.8,6.8,0,0,1,1-3.51,7.22,7.22,0,0,1,2.77-2.63,7.78,7.78,0,0,1,7-.26,10,10,0,0,1,3.09,2.11l.09.08L17.51,86l-.1-.09a12.69,12.69,0,0,0-3.78-2.54,10.62,10.62,0,0,0-4.13-.8,10,10,0,0,0-4.87,1.2A9,9,0,0,0,0,91.67,8.73,8.73,0,0,0,2.16,97.5a9.51,9.51,0,0,0,7.58,3.27,8.59,8.59,0,0,0,6.33-2.37A8.69,8.69,0,0,0,18.45,92v-.13h-7.6Z"/><rect class="cls-3" x="20.92" y="82.57" width="1.89" height="17.77"/><path class="cls-3" d="M32,87.13a6.4,6.4,0,0,0-4.93,2.16,6.92,6.92,0,0,0,.1,9.35,6.35,6.35,0,0,0,4.83,2,6.35,6.35,0,0,0,4.83-2,6.93,6.93,0,0,0,.1-9.36A6.43,6.43,0,0,0,32,87.13ZM36.8,94a5,5,0,0,1-.64,2.5,4.38,4.38,0,0,1-1.73,1.79,5,5,0,0,1-4.82,0,4.5,4.5,0,0,1-1.75-1.79,5.22,5.22,0,0,1-.64-2.5,4.94,4.94,0,0,1,1.41-3.53,4.63,4.63,0,0,1,6.56-.2,1.89,1.89,0,0,1,.2.2A4.9,4.9,0,0,1,36.8,94Z"/><path class="cls-3" d="M48.36,87.13a6.43,6.43,0,0,0-2.83.63,6.68,6.68,0,0,0-2.12,1.65V82.57H41.55v17.77h1.86V98.26a6.36,6.36,0,0,0,2,1.72,6.17,6.17,0,0,0,2.86.67,6.37,6.37,0,0,0,4.7-2,6.54,6.54,0,0,0,2-4.75,6.69,6.69,0,0,0-2-4.78A6.31,6.31,0,0,0,48.36,87.13Zm4.71,6.74a5,5,0,0,1-2.44,4.32,4.89,4.89,0,0,1-5.92-.78,4.91,4.91,0,0,1-1.41-3.59,5.15,5.15,0,0,1,.63-2.52,4.57,4.57,0,0,1,1.79-1.78,5,5,0,0,1,2.48-.66,4.73,4.73,0,0,1,2.4.65,4.8,4.8,0,0,1,1.8,1.86A5,5,0,0,1,53.07,93.87Z"/><path class="cls-3" d="M70.3,94a6.89,6.89,0,0,0-1.41-4.39,6.38,6.38,0,0,0-5.25-2.5,6.17,6.17,0,0,0-5.11,2.45A6.89,6.89,0,0,0,57,93.94a7,7,0,0,0,1.77,4.65,6.17,6.17,0,0,0,4.92,2.06,7.38,7.38,0,0,0,2.55-.42,6.33,6.33,0,0,0,2-1.26,7,7,0,0,0,1.57-2.16l.06-.11-1.58-.84-.06.1a7.52,7.52,0,0,1-1.36,1.77,5,5,0,0,1-1.51.87,5.2,5.2,0,0,1-1.83.33,4.4,4.4,0,0,1-3.27-1.37A5,5,0,0,1,59,94.14H70.3ZM59.17,92.5a5.14,5.14,0,0,1,1.38-2.4,4.54,4.54,0,0,1,3.1-1.16,5,5,0,0,1,2.11.46,4.47,4.47,0,0,1,1.6,1.22,5.07,5.07,0,0,1,.88,1.88Z"/><polygon class="cls-3" points="85.07 95.87 73.93 83.05 73.89 83.01 73.34 83.01 73.34 100.34 75.37 100.34 75.37 87.64 86.39 100.3 86.43 100.34 87 100.34 87 83.01 85.07 83.01 85.07 95.87"/><path class="cls-3" d="M103.29,94a6.89,6.89,0,0,0-1.41-4.39,6.35,6.35,0,0,0-5.24-2.5,6.13,6.13,0,0,0-5.11,2.45A6.89,6.89,0,0,0,90,93.94a7,7,0,0,0,1.77,4.65,6.2,6.2,0,0,0,4.93,2.06,7.28,7.28,0,0,0,2.54-.42,6.33,6.33,0,0,0,2-1.26,7.14,7.14,0,0,0,1.57-2.16l.06-.11-1.57-.84-.06.1a7.63,7.63,0,0,1-1.37,1.77,5,5,0,0,1-1.51.87,5.16,5.16,0,0,1-1.83.33,4.32,4.32,0,0,1-3.26-1.37A5,5,0,0,1,92,94.14h11.34ZM92.16,92.5a5.32,5.32,0,0,1,1.38-2.4,4.5,4.5,0,0,1,3.11-1.16,4.91,4.91,0,0,1,2.1.46,4.47,4.47,0,0,1,1.6,1.22,5.07,5.07,0,0,1,.88,1.88Z"/><polygon class="cls-3" points="118.41 96.45 114.49 87.53 114.46 87.45 114.01 87.45 110.04 96.45 106.25 87.45 104.3 87.45 109.77 100.27 109.8 100.34 110.26 100.34 114.24 91.48 118.13 100.27 118.17 100.34 118.65 100.34 124.17 87.63 124.24 87.45 122.27 87.45 118.41 96.45"/><path class="cls-3" d="M128.72,88.9a3.71,3.71,0,0,1,2.46,1.24l.09.08L132.48,89l-.09-.09a5.35,5.35,0,0,0-3.6-1.74,3.54,3.54,0,0,0-2.56,1,3.52,3.52,0,0,0-.36,4.48,6.4,6.4,0,0,0,2.37,1.78,6.72,6.72,0,0,1,2,1.33,1.69,1.69,0,0,1,.42,1.16,1.82,1.82,0,0,1-.64,1.38,2.28,2.28,0,0,1-1.57.59,3.46,3.46,0,0,1-2.54-1.36l-.1-.11-1.19,1.35.07.08a4.59,4.59,0,0,0,1.68,1.35,5.14,5.14,0,0,0,2.15.47,3.84,3.84,0,0,0,2.81-1.11,3.66,3.66,0,0,0,1.13-2.71,3.49,3.49,0,0,0-.66-2.07A7.26,7.26,0,0,0,129.29,93a6.28,6.28,0,0,1-1.91-1.32,1.63,1.63,0,0,1-.44-1.07,1.5,1.5,0,0,1,.52-1.14A1.86,1.86,0,0,1,128.72,88.9Z"/><polygon class="cls-3" points="147.38 96.45 143.46 87.53 143.43 87.45 142.98 87.45 139.01 96.45 135.22 87.45 133.27 87.45 138.74 100.27 138.77 100.34 139.24 100.34 143.21 91.48 147.1 100.27 147.14 100.34 147.62 100.34 153.14 87.63 153.21 87.45 151.24 87.45 147.38 96.45"/><path class="cls-3" d="M155.49,82.26A1.47,1.47,0,0,0,154,83.71h0a1.43,1.43,0,0,0,.43,1,1.39,1.39,0,0,0,1,.43A1.48,1.48,0,0,0,157,83.78v-.06a1.39,1.39,0,0,0-.43-1A1.43,1.43,0,0,0,155.49,82.26Z"/><rect class="cls-3" x="154.56" y="87.45" width="1.87" height="12.89"/><path class="cls-3" d="M164,87.13a3.2,3.2,0,0,0-1.79.57A5.54,5.54,0,0,0,160.83,89v-1.6h-1.91V100.3h1.91V95.9a19.65,19.65,0,0,1,.3-4.33,4.2,4.2,0,0,1,1.12-2,2.24,2.24,0,0,1,1.49-.63,2.21,2.21,0,0,1,.8.21h.1l1-1.56-.11-.06A2.92,2.92,0,0,0,164,87.13Z"/><path class="cls-3" d="M176.91,96a7.8,7.8,0,0,1-1.36,1.77,5,5,0,0,1-1.51.87,5.25,5.25,0,0,1-1.84.33,4.41,4.41,0,0,1-3.26-1.37,5.06,5.06,0,0,1-1.36-3.42h11.34V94a6.89,6.89,0,0,0-1.41-4.39,6.38,6.38,0,0,0-5.25-2.5,6.15,6.15,0,0,0-5.11,2.45,7,7,0,0,0,.27,9,6.17,6.17,0,0,0,4.92,2.06,7.38,7.38,0,0,0,2.55-.42,6.33,6.33,0,0,0,2-1.26,7,7,0,0,0,1.57-2.16v-.11L177,95.86ZM176,90.62a5.4,5.4,0,0,1,.88,1.88h-9.07a5.14,5.14,0,0,1,1.38-2.4,4.5,4.5,0,0,1,3.1-1.16,4.91,4.91,0,0,1,2.1.46A4.39,4.39,0,0,1,176,90.62Z"/></g></g></svg>